<?xml version="1.0" standalone="no"?>
<!DOCTYPE svg PUBLIC "-//W3C//DTD SVG 20010904//EN"
 "http://www.w3.org/TR/2001/REC-SVG-20010904/DTD/svg10.dtd">
<svg version="1.0" xmlns="http://www.w3.org/2000/svg"
 width="16.000000pt" height="16.000000pt" viewBox="0 0 16.000000 16.000000"
 preserveAspectRatio="xMidYMid meet">
<metadata>
Created by potrace 1.11, written by Peter Selinger 2001-2013
</metadata>
<g transform="translate(0.000000,16.000000) scale(0.002286,-0.002286)"
fill="#000000" stroke="none">
<path d="M3610 5198 l0 -1572 58 94 c81 131 138 223 284 455 130 207 441 705
585 937 97 156 137 220 168 268 42 65 322 515 406 650 29 47 78 126 109 175
31 50 92 146 135 215 102 163 115 185 157 250 19 30 40 65 47 78 l12 22 -981
0 -980 0 0 -1572z"/>
<path d="M3268 6574 c-65 -104 -122 -196 -128 -204 -9 -14 -246 -395 -289
-465 -28 -46 -500 -798 -511 -815 -15 -23 -170 -271 -190 -305 -21 -35 -595
-953 -610 -975 -37 -54 -108 -175 -105 -180 2 -3 441 -5 977 -4 l973 0 3 788
c1 433 1 1139 0 1568 l-3 780 -117 -188z"/>
<path d="M1435 3369 c-2 -3 64 -113 147 -245 190 -302 186 -296 195 -314 4 -8
11 -19 15 -25 12 -14 82 -127 91 -145 4 -8 24 -41 45 -73 45 -70 719 -1146
747 -1193 11 -18 72 -115 135 -215 150 -238 159 -251 167 -269 4 -8 11 -19 15
-25 5 -5 94 -147 198 -314 104 -167 192 -306 195 -309 3 -3 5 701 5 1564 l0
1569 -976 0 c-537 0 -977 -3 -979 -6z"/>
<path d="M3610 1801 l0 -1571 980 0 c539 0 980 2 980 4 0 4 -172 281 -187 302
-5 5 -13 19 -19 30 -6 10 -65 105 -131 209 -65 105 -155 247 -198 318 -44 70
-126 200 -182 290 -56 89 -127 203 -157 252 -31 50 -75 120 -98 158 -24 37
-99 156 -166 265 -68 108 -169 270 -225 360 -167 266 -319 510 -369 591 -26
42 -52 81 -58 88 -5 7 -10 14 -10 16 0 2 -36 62 -80 132 l-80 128 0 -1572z"/>
</g>
</svg>
